<?xml version="1.0" encoding="UTF-8" standalone="no"?>
<!-- Created with Inkscape (http://www.inkscape.org/) -->

<svg
   xmlns:dc="http://purl.org/dc/elements/1.1/"
   xmlns:cc="http://creativecommons.org/ns#"
   xmlns:rdf="http://www.w3.org/1999/02/22-rdf-syntax-ns#"
   xmlns:svg="http://www.w3.org/2000/svg"
   xmlns="http://www.w3.org/2000/svg"
   xmlns:sodipodi="http://sodipodi.sourceforge.net/DTD/sodipodi-0.dtd"
   xmlns:inkscape="http://www.inkscape.org/namespaces/inkscape"
   width="210mm"
   height="297mm"
   viewBox="0 0 210 297"
   version="1.1"
   id="svg2280"
   inkscape:version="0.92.3 (2405546, 2018-03-11)"
   sodipodi:docname="snow_covered_tree.svg">
  <defs
     id="defs2274" />
  <sodipodi:namedview
     id="base"
     pagecolor="#ffffff"
     bordercolor="#666666"
     borderopacity="1.0"
     inkscape:pageopacity="0.0"
     inkscape:pageshadow="2"
     inkscape:zoom="1.979899"
     inkscape:cx="352.8857"
     inkscape:cy="451.34776"
     inkscape:document-units="mm"
     inkscape:current-layer="layer1"
     showgrid="false"
     inkscape:window-width="1920"
     inkscape:window-height="1046"
     inkscape:window-x="-11"
     inkscape:window-y="-11"
     inkscape:window-maximized="1" />
  <metadata
     id="metadata2277">
    <rdf:RDF>
      <cc:Work
         rdf:about="">
        <dc:format>image/svg+xml</dc:format>
        <dc:type
           rdf:resource="http://purl.org/dc/dcmitype/StillImage" />
        <dc:title></dc:title>
      </cc:Work>
    </rdf:RDF>
  </metadata>
  <g
     inkscape:label="Ebene 1"
     inkscape:groupmode="layer"
     id="layer1">
    <rect
       style="fill:#784421;fill-opacity:1;stroke:#000000;stroke-width:0.94273067;stroke-linecap:round;stroke-linejoin:bevel;stroke-miterlimit:4;stroke-dasharray:none;stroke-opacity:1"
       id="rect2825"
       width="9.4117022"
       height="20.236118"
       x="103.93921"
       y="202.22429" />
    <path
       sodipodi:type="star"
       style="fill:#00aa00;fill-opacity:1;stroke:#000000;stroke-width:1;stroke-linecap:round;stroke-linejoin:bevel;stroke-miterlimit:4;stroke-dasharray:none;stroke-opacity:1"
       id="path2827"
       sodipodi:sides="3"
       sodipodi:cx="108.7787"
       sodipodi:cy="192.23034"
       sodipodi:r1="31.128582"
       sodipodi:r2="15.564291"
       sodipodi:arg1="0.52127604"
       sodipodi:arg2="1.5684736"
       inkscape:flatsided="false"
       inkscape:rounded="0"
       inkscape:randomized="0"
       d="m 135.77292,207.73198 -26.95807,0.0626 -26.958067,0.0626 13.424808,-23.37768 13.424809,-23.37768 13.53326,23.31506 z"
       inkscape:transform-center-x="-0.036150398"
       inkscape:transform-center-y="-7.7508185" />
    <path
       sodipodi:type="star"
       style="fill:#00aa00;fill-opacity:1;stroke:#000000;stroke-width:1;stroke-linecap:round;stroke-linejoin:bevel;stroke-miterlimit:4;stroke-dasharray:none;stroke-opacity:1"
       id="path2827-2"
       sodipodi:sides="3"
       sodipodi:cx="108.30415"
       sodipodi:cy="172.22507"
       sodipodi:r1="25.458796"
       sodipodi:r2="12.729399"
       sodipodi:arg1="0.52127604"
       sodipodi:arg2="1.5684736"
       inkscape:flatsided="false"
       inkscape:rounded="0"
       inkscape:randomized="0"
       d="m 130.38162,184.90322 -22.0479,0.0512 -22.047904,0.0512 10.979601,-19.11965 10.979603,-19.11965 11.0683,19.06844 z"
       inkscape:transform-center-x="-0.029569043"
       inkscape:transform-center-y="-6.3390752" />
    <path
       style="fill:#008000;fill-opacity:1;stroke:#000000;stroke-width:1;stroke-linecap:round;stroke-linejoin:round;stroke-miterlimit:4;stroke-dasharray:none;stroke-opacity:1"
       inkscape:transform-center-x="-0.022389822"
       inkscape:transform-center-y="-4.8031754"
       d="m 120.09631,167.05019 c -2.55943,-0.27451 -1.99452,-1.48132 -4.40857,-1.36805 -1.29812,0.0655 -3.30804,3.34357 -7.29861,1.3139 -2.2127,-2.01219 -3.70752,0.0275 -5.14725,0.31154 -1.74338,0.34393 -3.738886,-2.00059 -6.449977,-0.36518 l 11.506387,-20.17606 z"
       id="path2827-2-1-8-5"
       inkscape:connector-curvature="0"
       sodipodi:nodetypes="cccsccc" />
    <path
       style="fill:#f2f2f2;fill-opacity:1;stroke:#000000;stroke-width:1;stroke-linecap:round;stroke-linejoin:round;stroke-miterlimit:4;stroke-dasharray:none;stroke-opacity:1"
       inkscape:transform-center-x="-0.030573824"
       inkscape:transform-center-y="-6.5579845"
       d="m 124.33909,162.71829 c -3.49451,-0.3748 -2.72321,-2.02252 -6.01922,-1.86786 -1.77238,0.0894 -4.51661,4.56512 -9.96511,1.79392 -3.02109,-2.74732 -5.06203,0.0375 -7.02775,0.42535 -2.38032,0.4696 -5.104868,-2.73148 -8.806443,-0.49858 l 15.710173,-27.54725 z"
       id="path2827-2-1-8"
       inkscape:connector-curvature="0"
       sodipodi:nodetypes="cccsccc" />
    <path
       style="fill:#008000;fill-opacity:1;stroke:#000000;stroke-width:1;stroke-linecap:round;stroke-linejoin:round;stroke-miterlimit:4;stroke-dasharray:none;stroke-opacity:1"
       inkscape:transform-center-x="-0.034708226"
       inkscape:transform-center-y="-7.4444869"
       d="m 125.94291,190.56217 c -1.91464,-0.98262 -2.87312,-0.57629 -4.65947,-0.40428 -2.01189,0.19372 -6.63623,2.57554 -11.68491,0.60573 -3.42948,-1.77333 -5.74631,0.22788 -7.97777,0.48286 -2.736356,0.31267 -5.794942,-3.10074 -9.996889,-0.56599 l 6.191496,-10.13554 c 1.197763,1.59631 4.615613,0.9839 6.922133,-0.52373 2.97363,-1.94368 6.93478,5.55241 10.01497,2.32829 1.79822,-1.88227 3.81829,-4.75485 6.98679,-1.25481 z"
       id="path2827-2-1-8-6-8"
       inkscape:connector-curvature="0"
       sodipodi:nodetypes="cscsccsscc" />
    <path
       style="fill:#f2f2f2;fill-opacity:1;stroke:#000000;stroke-width:1;stroke-linecap:round;stroke-linejoin:round;stroke-miterlimit:4;stroke-dasharray:none;stroke-opacity:1"
       inkscape:transform-center-x="-0.044441217"
       inkscape:transform-center-y="-9.5328538"
       d="m 131.52023,186.38299 c -5.52357,-0.0255 -1.84308,-1.1592 -8.2724,-0.88314 -2.58582,0.11103 -8.49787,3.29805 -14.96283,0.77566 -4.39153,-2.27081 -7.35829,0.29179 -10.215719,0.6183 -3.503981,0.4004 -7.420586,-3.97056 -12.801284,-0.72476 l 7.928363,-12.97879 c 1.533774,2.0441 5.910412,1.25988 8.86397,-0.67068 3.80782,-2.48892 8.88016,7.11002 12.82441,2.98144 2.30268,-2.41029 4.88942,-6.0887 8.94677,-1.60682 z"
       id="path2827-2-1-8-6"
       inkscape:connector-curvature="0"
       sodipodi:nodetypes="cscsccsscc" />
    <path
       style="fill:#f2f2f2;fill-opacity:1;stroke:#000000;stroke-width:1;stroke-linecap:round;stroke-linejoin:round;stroke-miterlimit:4;stroke-dasharray:none;stroke-opacity:1"
       inkscape:transform-center-x="-0.052582486"
       inkscape:transform-center-y="-11.278973"
       d="m 135.77292,207.73198 c -4.25378,1.26642 -7.03222,-0.22458 -11.05845,0.30364 -3.41318,1.48079 -9.66092,6.30691 -16.66412,0.63425 -5.19592,-2.68675 -9.084081,1.76265 -12.464899,2.14897 -4.1458,0.47374 -8.779803,-4.69785 -15.146079,-0.85752 l 10.042052,-16.67901 c 4.18274,-2.12493 7.799512,5.3321 10.771046,3.83669 1.65522,-0.83298 3.91566,-1.83425 5.50426,-1.9992 3.61027,-0.37487 4.5076,3.89663 8.72424,2.21946 3.36251,-1.33744 7.78229,-5.7063 12.32478,-3.24188 z"
       id="path2827-2-1-8-6-2"
       inkscape:connector-curvature="0"
       sodipodi:nodetypes="cccsccssscc" />
  </g>
</svg>
